<?xml version="1.0" encoding="UTF-8"?>
<svg width="111px" height="40px" viewBox="0 0 111 40" version="1.1" xmlns="http://www.w3.org/2000/svg" xmlns:xlink="http://www.w3.org/1999/xlink">
    <!-- Generator: Sketch 52.5 (67469) - http://www.bohemiancoding.com/sketch -->
    <title>WAGO</title>
    <desc>Created with Sketch.</desc>
    <g id="Page-1" stroke="none" stroke-width="1" fill="none" fill-rule="evenodd">
        <g id="Artboard" transform="translate(-21.000000, -9.000000)" fill="#6EC800">
            <g id="topbar">
                <g id="WAGO" transform="translate(21.000000, 9.000000)">
                    <path d="M73.1318681,18.1098901 L73.1318681,20.6373626 L76.8241758,20.6373626 L76.8241758,22.9120879 L69.4395604,22.9120879 L69.4395604,15.8351648 L85,15.8351648 L85,8 L64.1648352,8 C62.3186813,8 61,9.26373626 61,11.032967 L61,27.967033 C61,29.7362637 62.3186813,31 64.1648352,31 L81.8351648,31 C83.6813187,31 85,29.7362637 85,27.967033 L85,18.3626374 L73.1318681,18.3626374 L73.1318681,18.1098901 Z" id="Path"></path>
                    <path d="M107.835165,8 L90.1648352,8 C88.3186813,8 87,9.26373626 87,11.032967 L87,27.967033 C87,29.7362637 88.3186813,31 90.1648352,31 L107.835165,31 C109.681319,31 111,29.7362637 111,27.967033 L111,11.032967 C111,9.51648352 109.417582,8 107.835165,8 Z M102.56044,22.9120879 L95.1758242,22.9120879 L95.1758242,15.8351648 L102.56044,15.8351648 L102.56044,22.9120879 Z" id="Shape" fill-rule="nonzero"></path>
                    <path d="M45,9.25 L28.75,34.25 L26,34.25 L29.75,40 L41.75,34.25 L38,34.25 L42.25,27.75 L50.25,27.75 L50.25,31.75 L58,31.75 L58,9 L45,9 L45,9.25 Z M44.75,24 L50.25,15.5 L50.25,24 L44.75,24 Z" id="Shape" fill-rule="nonzero"></path>
                    <polygon id="Path" points="9.35393258 31 16.1797753 20.4146341 16.1797753 31 25.7865169 31 42.2191011 5.54471545 45 5.54471545 41.2078652 0 29.0730337 5.54471545 32.6123596 5.54471545 24.2696629 18.6504065 24.2696629 8.06504065 14.6629213 8.06504065 7.83707865 18.6504065 7.83707865 8.06504065 0 8.06504065 0 31"></polygon>
                </g>
            </g>
        </g>
    </g>
</svg>